<?xml version="1.0" encoding="utf-8"?>
<svg width="64" height="64" viewBox="0 0 16 16" xmlns="http://www.w3.org/2000/svg" fill="currentColor" class="bi bi-nixby" version="1.1" xmlns:bx="https://boxy-svg.com" transform="matrix(6.123233995736766e-17,1,-1,6.123233995736766e-17,0,0)"><defs/><path fill="red" d="M5.5 2A3.5 3.5 0 0 0 2 5.5v5A3.5 3.5 0 0 0 5.5 14h5a3.5 3.5 0 0 0 3.5-3.5V8a.5.5 0 0 1 1 0v2.5a4.5 4.5 0 0 1-4.5 4.5h-5A4.5 4.5 0 0 1 1 10.5v-5A4.5 4.5 0 0 1 5.5 1H8a.5.5 0 0 1 0 1z"/><path fill="#c00" d="M16 3a3 3 0 1 1-6 0 3 3 0 0 1 6 0"/></svg>